<svg width="268px" height="100px" x="0px" y="0px" viewBox="0 0 268 100" xmlns="http://www.w3.org/2000/svg" version="1.1"><rect x="0" y="0" width="268" height="100" fill="#FFFFFF"/><g transform="translate(0, 0)" fill="#150DF7"><rect x="0" y="0" width="4" height="100"/><rect x="6" y="0" width="2" height="100"/><rect x="12" y="0" width="2" height="100"/><rect x="22" y="0" width="2" height="100"/><rect x="28" y="0" width="2" height="100"/><rect x="32" y="0" width="4" height="100"/><rect x="44" y="0" width="8" height="100"/><rect x="56" y="0" width="2" height="100"/><rect x="62" y="0" width="2" height="100"/><rect x="66" y="0" width="2" height="100"/><rect x="70" y="0" width="4" height="100"/><rect x="78" y="0" width="2" height="100"/><rect x="88" y="0" width="2" height="100"/><rect x="94" y="0" width="4" height="100"/><rect x="100" y="0" width="6" height="100"/><rect x="110" y="0" width="2" height="100"/><rect x="116" y="0" width="2" height="100"/><rect x="120" y="0" width="4" height="100"/><rect x="132" y="0" width="2" height="100"/><rect x="138" y="0" width="8" height="100"/><rect x="150" y="0" width="2" height="100"/><rect x="154" y="0" width="2" height="100"/><rect x="164" y="0" width="2" height="100"/><rect x="170" y="0" width="4" height="100"/><rect x="176" y="0" width="2" height="100"/><rect x="186" y="0" width="4" height="100"/><rect x="192" y="0" width="2" height="100"/><rect x="198" y="0" width="2" height="100"/><rect x="204" y="0" width="8" height="100"/><rect x="214" y="0" width="2" height="100"/><rect x="220" y="0" width="8" height="100"/><rect x="234" y="0" width="2" height="100"/><rect x="238" y="0" width="2" height="100"/><rect x="242" y="0" width="4" height="100"/><rect x="252" y="0" width="6" height="100"/><rect x="260" y="0" width="2" height="100"/><rect x="264" y="0" width="4" height="100"/></g></svg>